<?xml version="1.0" encoding="UTF-8"?>
<svg width="320px" height="90px" viewBox="0 0 320 90" version="1.1" xmlns="http://www.w3.org/2000/svg" xmlns:xlink="http://www.w3.org/1999/xlink">
    <!-- Generator: Sketch 51.2 (57519) - http://www.bohemiancoding.com/sketch -->
    <title>donate-button</title>
    <desc>Created with Sketch.</desc>
    <defs></defs>
    <g id="Page-1" stroke="none" stroke-width="1" fill="none" fill-rule="evenodd">
        <g id="donate-button">
            <rect id="Background" fill="#FC7421" x="0" y="0" width="320" height="90" rx="8"></rect>
            <path d="M112.355,53.59 L116.261,53.59 C120.074,53.59 123.236,51.141 123.236,46.057 C123.236,40.911 120.105,38.431 116.292,38.431 L112.355,38.431 L112.355,53.59 Z M116.385,57 L108.635,57 L108.635,35.021 L116.416,35.021 C122.399,35.021 127.111,38.989 127.111,46.057 C127.111,53.094 122.337,57 116.385,57 Z M138.603,54.241 C140.835,54.241 142.819,52.598 142.819,49.436 C142.819,46.305 140.835,44.693 138.603,44.693 C136.402,44.693 134.387,46.305 134.387,49.436 C134.387,52.567 136.402,54.241 138.603,54.241 Z M138.603,41.438 C143.129,41.438 146.446,44.817 146.446,49.436 C146.446,54.086 143.129,57.465 138.603,57.465 C134.108,57.465 130.791,54.086 130.791,49.436 C130.791,44.817 134.108,41.438 138.603,41.438 Z M154.714,48.289 L154.714,57 L151.118,57 L151.118,41.903 L154.621,41.903 L154.621,43.918 C155.613,42.182 157.411,41.469 159.085,41.469 C162.774,41.469 164.541,44.135 164.541,47.452 L164.541,57 L160.945,57 L160.945,48.072 C160.945,46.212 160.108,44.724 157.845,44.724 C155.799,44.724 154.714,46.305 154.714,48.289 Z M169.182,52.908 C169.182,50.211 171.166,48.723 173.739,48.351 L177.614,47.762 C178.482,47.638 178.73,47.204 178.73,46.677 C178.73,45.406 177.862,44.383 175.878,44.383 C173.987,44.383 172.933,45.592 172.778,47.111 L169.492,46.367 C169.771,43.763 172.127,41.438 175.847,41.438 C180.497,41.438 182.264,44.073 182.264,47.08 L182.264,54.582 C182.264,55.946 182.419,56.845 182.45,57 L179.102,57 C179.071,56.907 178.947,56.287 178.947,55.078 C178.234,56.225 176.746,57.465 174.297,57.465 C171.135,57.465 169.182,55.295 169.182,52.908 Z M174.979,54.644 C176.994,54.644 178.73,53.683 178.73,50.738 L178.73,50.056 L174.793,50.645 C173.677,50.831 172.778,51.451 172.778,52.691 C172.778,53.714 173.553,54.644 174.979,54.644 Z M192.299,37.284 L192.299,41.903 L195.43,41.903 L195.43,45.096 L192.299,45.096 L192.299,52.102 C192.299,53.435 192.888,53.993 194.221,53.993 C194.717,53.993 195.306,53.9 195.461,53.869 L195.461,56.845 C195.244,56.938 194.562,57.186 193.26,57.186 C190.47,57.186 188.734,55.512 188.734,52.691 L188.734,45.096 L185.944,45.096 L185.944,41.903 L186.719,41.903 C188.331,41.903 189.044,40.88 189.044,39.547 L189.044,37.284 L192.299,37.284 Z M202.768,47.793 L210.177,47.793 C210.115,46.026 208.937,44.445 206.457,44.445 C204.194,44.445 202.892,46.181 202.768,47.793 Z M210.58,51.73 L213.618,52.691 C212.812,55.326 210.425,57.465 206.798,57.465 C202.706,57.465 199.079,54.489 199.079,49.374 C199.079,44.6 202.613,41.438 206.426,41.438 C211.076,41.438 213.804,44.507 213.804,49.281 C213.804,49.87 213.742,50.366 213.711,50.428 L202.675,50.428 C202.768,52.722 204.566,54.365 206.798,54.365 C208.968,54.365 210.084,53.218 210.58,51.73 Z" id="Donate" fill="#FFFFFF"></path>
            <path d="M63.0700943,32 C59.6982937,32 57.5698875,33.64098 56.3346604,35.1248205 C55.0994334,33.64098 52.9713539,32 49.5982465,32 C43.8566133,32 40,37.3188921 40,42.2862624 C40,49.5176166 53.8903419,59.2092973 55.4741505,60.2903251 C55.7335449,60.4670661 56.0341027,60.5556 56.3346604,60.5556 C56.6352182,60.5556 56.9357759,60.4670661 57.1951704,60.2903251 C58.778979,59.2092973 72.6693209,49.5176166 72.6693209,42.2862624 C72.6693209,37.3188921 68.8120542,32 63.0700943,32 Z" id="Heart" fill="#021F69" fill-rule="nonzero" opacity="0.119698661"></path>
        </g>
    </g>
</svg>